General
Complete name                            : Little_Einsteins_Team_Up_for_Adventure_2006_NTSC_DVD5.iso
Format                                   : DVD Video / ISO
Format profile                           : Program
File size                                : 4.12 GiB
Duration                                 : 1 h 9 min 3 s
Overall bit rate mode                    : Variable
Overall bit rate                         : 8 512 kb/s
Released date                            : 2006-04-25
Disc label                               : LET0NNF1

Video
ID                                       : 224 (0xE0)
Format                                   : MPEG Video
Format version                           : Version 2
Format profile                           : Main@Main
Format settings                          : BVOP
Format settings, BVOP                    : Yes
Format settings, Matrix                  : Custom
Format settings, GOP                     : M=3, N=15
Duration                                 : 1 h 9 min 3 s
Bit rate mode                            : Variable
Bit rate                                 : 5 120 kb/s
Maximum bit rate                         : 8 000 kb/s
Width                                    : 720 pixels
Height                                   : 480 pixels
Display aspect ratio                     : 4:3
Frame rate                               : 29.970 (30000/1001) FPS
Standard                                 : NTSC
Color space                              : YUV
Chroma subsampling                       : 4:2:0
Bit depth                                : 8 bits
Scan type                                : Interlaced
Scan order                               : Bottom Field First
Compression mode                         : Lossy
Bits/(Pixel*Frame)                       : 0.494
Time code source                         : Group of pictures header
Time code first frame                    : 00:00:00:00
Stream size                              : 2.47 GiB (60%)

Audio #1 (Primary)
ID                                       : 128 (0x80)
Format                                   : AC-3
Format/Info                              : Audio Coding 3
Commercial name                          : Dolby Digital
Muxing mode                              : DVD-Video
Duration                                 : 1 h 9 min 3 s
Bit rate mode                            : Constant
Bit rate                                 : 192 kb/s
Channel(s)                               : 2 channels (Stereo)
Channel layout                           : L R
Channel positions                        : Front: L R
Sampling rate                            : 48.0 kHz
Frame rate                               : 31.250 FPS (1536 SPF)
Compression mode                         : Lossy
Stream size                              : 94.8 MiB (2.2%)
Language                                 : English
Service kind                             : Complete Main

Audio #2
ID                                       : 129 (0x81)
Format                                   : AC-3
Format/Info                              : Audio Coding 3
Commercial name                          : Dolby Digital
Muxing mode                              : DVD-Video
Duration                                 : 1 h 9 min 3 s
Bit rate mode                            : Constant
Bit rate                                 : 192 kb/s
Channel(s)                               : 2 channels (Stereo)
Channel layout                           : L R
Channel positions                        : Front: L R
Sampling rate                            : 48.0 kHz
Frame rate                               : 31.250 FPS (1536 SPF)
Compression mode                         : Lossy
Stream size                              : 94.8 MiB (2.2%)
Language                                 : French (Canadian)
Service kind                             : Complete Main

Text #1 (Subpicture)
ID                                       : 32 (0x20)
Format                                   : RLE
Format/Info                              : Run-length encoding
Muxing mode                              : DVD-Video
Duration                                 : 1 h 9 min 3 s
Language                                 : English (SDH)

Text #2 (Subpicture)
ID                                       : 33 (0x21)
Format                                   : RLE
Format/Info                              : Run-length encoding
Muxing mode                              : DVD-Video
Duration                                 : 1 h 9 min 3 s
Language                                 : French

Text #3 (Closed Captions)
ID                                       : 224 (0xE0)-1
Format                                   : EIA-608
Muxing mode                              : Stream in video (Line 21)
Muxing mode, more info                   : Muxed in Video Stream 1
Duration                                 : 1 h 9 min 3 s
Language                                 : English